<?xml version="1.0" encoding="UTF-8" standalone="no"?>
<svg
   xmlns:dc="http://purl.org/dc/elements/1.1/"
   xmlns:cc="http://creativecommons.org/ns#"
   xmlns:rdf="http://www.w3.org/1999/02/22-rdf-syntax-ns#"
   xmlns:svg="http://www.w3.org/2000/svg"
   xmlns="http://www.w3.org/2000/svg"
   xmlns:sodipodi="http://sodipodi.sourceforge.net/DTD/sodipodi-0.dtd"
   xmlns:inkscape="http://www.inkscape.org/namespaces/inkscape"
   version="1.1"
   id="svg8"
   x="0px"
   y="0px"
   viewBox="0 0 405.73743 347.729"
   xml:space="preserve"
   sodipodi:docname="flippin-awesome.svg"
   width="405.73743"
   height="347.729"
   inkscape:version="1.0.1 (3bc2e813f5, 2020-09-07)"><metadata
   id="metadata92"><rdf:RDF><cc:Work
       rdf:about=""><dc:format>image/svg+xml</dc:format><dc:type
         rdf:resource="http://purl.org/dc/dcmitype/StillImage" /><dc:title></dc:title></cc:Work></rdf:RDF></metadata><defs
   id="defs90">
	
	
	
	
	
	
	
	
	
	
	
</defs><sodipodi:namedview
   pagecolor="#ffffff"
   bordercolor="#666666"
   borderopacity="1"
   objecttolerance="10"
   gridtolerance="10"
   guidetolerance="10"
   inkscape:pageopacity="0"
   inkscape:pageshadow="2"
   inkscape:window-width="1366"
   inkscape:window-height="705"
   id="namedview88"
   showgrid="false"
   inkscape:showpageshadow="false"
   lock-margins="false"
   fit-margin-bottom="20"
   fit-margin-top="10"
   fit-margin-left="10"
   fit-margin-right="10"
   inkscape:zoom="0.7425"
   inkscape:cx="284.3245"
   inkscape:cy="253.40084"
   inkscape:window-x="-8"
   inkscape:window-y="-8"
   inkscape:window-maximized="1"
   inkscape:current-layer="svg8" />
<style
   type="text/css"
   id="style2">
	.st0{fill:#010101;}
</style>
<g
   id="g999"><g
     id="g20"
     style="fill:#a41634;fill-opacity:1"
     transform="translate(2.8408669,-31.10455)">
		<path
   class="st0"
   d="m 106.3,189.2 h -4.4 c -1.7,-0.2 -3.4,-0.2 -5.1,-0.4 -1.5,-0.3 -2.8,-1.3 -3.8,-2.6 -0.2,-0.4 -0.5,-1.2 -0.4,-1.5 0.2,-0.4 1,-0.7 1.4,-0.7 4.2,-0.3 8.5,-0.8 12.7,-0.3 0.4,0.2 0.9,0.2 1.4,0.2 3.7,-11.5 8.4,-22.5 14,-33.5 l -3.2,0.4 c -5.9,0.7 -11.9,0.1 -17.6,-1.3 -3,-0.8 -5.5,-2.1 -7.7,-4.3 -0.6,-0.6 -1,-1.1 -1.1,-2 -0.3,-0.7 0.1,-1.4 1.1,-1.2 0.7,0.1 1.3,0.3 2,0.5 4.6,1.4 9.4,2 14.3,1.4 8.1,-0.9 15.7,-3.5 23.6,-5.4 7.7,-1.8 15.2,-3.5 22.9,-5.1 3.5,-0.7 7.4,-1.2 10.9,-0.5 5,0.8 9.9,2.2 13.5,5.9 1,0.9 1.7,2.1 1.8,3.3 0.2,1 0.2,2 -0.7,2.5 -0.8,0.6 -1.8,0.5 -2.5,-0.1 -0.8,-0.7 -1.7,-1.5 -2.4,-2.4 -0.4,-0.7 -0.9,-1 -1.8,-1.1 -2.4,-0.6 -4.6,-0.3 -7.1,0 -8.6,1.1 -17,2.8 -25.5,4.6 l -6.7,1.7 c -0.8,0.1 -1.3,0.6 -1.7,1.4 L 123.5,178 c -0.9,2.1 -1.6,4.4 -2.4,6.7 1,0.3 2,0.3 2.7,0.6 1.4,0.5 2.8,1.1 4,1.8 0.7,0.4 1.6,1.1 1.1,2.1 -0.4,0.8 -1.4,0.7 -2.2,0.5 -2.1,0 -4.2,-0.1 -6.3,-0.2 -0.2,0 -0.5,0.1 -0.9,0.1 l -0.9,2.4 c -5,15.1 -10,30 -15.1,45 -1.6,4.9 -3.6,9.8 -5.8,14.4 -1.9,4.2 -5.6,6.7 -9.8,8.4 -2,0.8 -5.3,-0.4 -6.7,-2 -0.7,-1.1 -0.5,-1.7 0.7,-2.2 2.8,-1.3 5.1,-3.2 6.2,-6 1.7,-4 2.9,-8.1 4,-12.2 3.3,-11.1 6.4,-22.3 9.7,-33.5 1.1,-3.9 2.3,-7.9 3.6,-11.8 0.4,-1 0.5,-1.9 0.9,-2.9 z"
   id="path4"
   style="fill:#a41634;fill-opacity:1" />
		<path
   class="st0"
   d="m 124.6,221.3 c -0.4,2.6 -0.9,5.4 -1.2,8 -0.4,2.2 -0.5,4.5 -0.7,6.7 -0.3,3.1 -0.1,6.1 0.3,9.1 v 0.2 c 0.5,2.4 1.3,2.8 3.4,1.6 2.4,-1.6 4.4,-3.6 6.1,-5.8 2.6,-3.7 4.7,-7.6 6.7,-11.4 1.6,-3.2 3,-6.6 4.6,-9.9 0.4,-1 1,-1.3 2,-1.3 0.7,0.1 0.9,0.4 0.8,1 -0.1,0.2 -0.1,0.4 -0.2,0.7 -2.9,7.2 -6.1,14.4 -10.3,21 -1.9,2.8 -4.1,5.2 -6.8,7.3 -2.5,1.8 -5.5,2.3 -8.5,1.8 -2.9,-0.7 -4.9,-2.4 -6.1,-5.2 -1,-2.3 -1.3,-4.7 -1.5,-7.1 -0.5,-6.1 0.7,-12 1.8,-17.9 2.1,-10.5 5.7,-20.6 10.2,-30.4 3.1,-6.9 7,-13.5 12.2,-19.4 1.8,-1.9 3.9,-3.7 6.3,-4.9 3.4,-1.7 6.7,-1.1 9.8,0.9 2,1.1 2.5,3.2 2.8,5.3 0.3,3.4 -0.2,6.7 -1,9.9 -2.6,9.9 -7,19.1 -13.3,27 -2.3,2.9 -5,5.5 -7.8,8 -2.4,2.2 -5.3,3.7 -8.5,4.6 -0.4,0 -0.6,0.1 -1.1,0.2 z m 0.9,-3.5 0.3,0.3 c 0.8,-0.4 1.8,-0.8 2.6,-1.4 3.5,-2.3 6.6,-5.2 9.3,-8.5 6.1,-7.3 10.3,-15.5 13,-24.7 1,-3.2 1.5,-6.5 1.3,-9.7 -0.1,-2.1 -0.6,-3.9 -1.8,-5.8 -0.6,0.5 -1.3,0.9 -1.7,1.4 -1.5,1.7 -3.1,3.5 -4.4,5.4 -3.4,4.8 -5.9,10.2 -8.5,15.4 -3.4,7 -6.4,14.2 -8.7,21.8 -0.5,2 -0.9,4 -1.4,5.8 z"
   id="path6"
   style="fill:#a41634;fill-opacity:1" />
		<path
   class="st0"
   d="m 150.9,246.7 c 1,-0.9 2.1,-1.7 2.8,-2.7 1.9,-2.4 3.7,-4.7 5.2,-7.4 3.3,-5.4 6.4,-11 9.5,-16.6 0.6,-1.1 1.1,-1.3 2.2,-1.2 0.9,0.1 1.2,0.4 1,1.1 -0.1,0.4 -0.4,0.7 -0.5,1.1 -3.5,6.9 -7.3,13.7 -10.9,20.4 -1.2,2.1 -2.8,4.2 -4.7,6.1 -3.4,3.3 -10.8,2.9 -13.1,-1.6 -2.3,-4.5 -3,-9.1 -1.9,-13.7 1.3,-5.5 2.8,-11 4.4,-16.4 0.6,-1.9 1.8,-3.7 2.7,-5.4 0.3,-0.5 0.9,-0.8 1.3,-1.1 1.8,-0.8 5.8,-0.4 7.2,0.8 0.4,0.3 0.6,0.9 0.8,1.3 0.4,2.1 0.1,4.1 -0.4,6.1 -1.8,6 -3.4,12.2 -5,18.2 -0.8,3.1 -1.4,6.1 -1.4,9.1 0,0.6 0.2,1.2 0.2,1.8 0.4,0 0.5,0.1 0.6,0.1 z m 2.8,-50.3 c 0.1,-1.6 0.6,-3.4 1.9,-4.9 1.6,-1.9 5.2,-1.9 7,-0.4 0.7,0.5 0.6,1 0.3,1.8 -0.7,1.6 -1.3,3.2 -1.9,4.8 -0.4,1.1 -0.7,2.3 -0.1,3.6 0.3,0.6 -0.2,0.9 -0.8,1.1 -1.1,0.3 -2.3,0 -3.4,-0.6 -1.8,-1.2 -3,-2.9 -3,-5.4 z"
   id="path8"
   style="fill:#a41634;fill-opacity:1" />
		<path
   class="st0"
   d="m 209.7,218.7 c -0.2,0.4 -0.3,0.7 -0.5,0.9 -3.7,4 -7.4,8 -11.4,11.8 -3,2.9 -6.4,5.6 -9.3,8.7 -2.2,2.4 -4.9,4.1 -8.1,4.9 -1.1,0.4 -2.3,0.6 -3.4,0.3 -0.5,-0.1 -1.3,-0.2 -1.3,-1 0,-0.3 0.4,-0.9 0.8,-1.1 1,-0.7 2.3,-1.3 3.4,-2.1 3.4,-2.5 5.8,-5.8 7.8,-9.5 2.8,-5.2 4.7,-10.9 5.8,-16.7 0.3,-2.5 0.7,-5.1 0.1,-7.7 -0.1,-0.7 -0.4,-1.4 -0.7,-2.2 -1.2,0.4 -2,1 -2.8,1.9 -1,1.3 -2.1,2.6 -2.9,4 -3.6,6.1 -6.1,12.7 -8.7,19.2 -3.4,8.4 -5.5,16.9 -7.3,25.7 -1.3,6 -2.4,12 -3.7,18 -0.1,0.3 -0.2,0.6 -0.2,1 -0.3,1.8 -1.5,2.6 -3.1,2.8 -1.6,0.3 -2.8,-0.4 -3.7,-1.7 -1,-1.4 -1.5,-3.1 -1.7,-4.9 -0.4,-2.9 -0.3,-5.8 -0.1,-8.7 0.6,-5.8 1.1,-11.7 1.8,-17.4 0.5,-4.7 1.1,-9.4 1.7,-14.1 1,-7.2 2.5,-14.4 4.4,-21.5 l 0.7,-1.9 c 0.4,-1 1.1,-1.6 2.2,-1.5 0.8,0 1.8,0.2 2.6,0.5 1.1,0.3 1.9,1.2 1.9,2.5 -0.2,2.7 -0.2,5.5 -0.5,8.1 -0.6,5.7 -1.4,11.3 -2.2,16.8 -0.4,3.1 -1,6.3 -1.3,9.4 0,0.4 -0.1,0.9 0.1,1.4 l 1.9,-6.8 c 2.5,-8.9 5.4,-17.6 9.6,-25.9 1.1,-2 2.4,-4 3.7,-5.8 1.6,-2 3.6,-3.4 6.1,-3.8 4.5,-0.7 7.2,1.3 8.4,4.7 0.6,1.6 0.9,3.1 1,4.9 0.1,5.3 -1,10.3 -3.1,15.2 -0.2,0.5 -0.4,0.9 -0.4,1.6 1.6,-1.3 3.1,-2.8 4.6,-4.3 1.6,-1.6 3.2,-3.4 4.8,-5.2 0.9,-1.1 1.6,-1.2 3,-0.5 z"
   id="path10"
   style="fill:#a41634;fill-opacity:1" />
		<path
   class="st0"
   d="m 252.7,218.7 c -0.2,0.4 -0.3,0.7 -0.5,0.9 -3.7,4 -7.4,8 -11.4,11.8 -3,2.9 -6.4,5.6 -9.3,8.7 -2.2,2.4 -4.9,4.1 -8.1,4.9 -1.1,0.4 -2.3,0.6 -3.4,0.3 -0.5,-0.1 -1.3,-0.2 -1.3,-1 0,-0.3 0.4,-0.9 0.8,-1.1 1,-0.7 2.3,-1.3 3.4,-2.1 3.4,-2.5 5.8,-5.8 7.8,-9.5 2.8,-5.2 4.7,-10.9 5.8,-16.7 0.3,-2.5 0.7,-5.1 0.1,-7.7 -0.1,-0.7 -0.4,-1.4 -0.7,-2.2 -1.2,0.4 -2,1 -2.8,1.9 -1,1.3 -2.1,2.6 -2.9,4 -3.6,6.1 -6.1,12.7 -8.7,19.2 -3.4,8.4 -5.5,16.9 -7.3,25.7 -1.3,6 -2.4,12 -3.7,18 -0.1,0.3 -0.2,0.6 -0.2,1 -0.3,1.8 -1.5,2.6 -3.1,2.8 -1.6,0.3 -2.8,-0.4 -3.7,-1.7 -1,-1.4 -1.5,-3.1 -1.7,-4.9 -0.4,-2.9 -0.3,-5.8 -0.1,-8.7 0.6,-5.8 1.1,-11.7 1.8,-17.4 0.5,-4.7 1.1,-9.4 1.7,-14.1 1,-7.2 2.5,-14.4 4.4,-21.5 l 0.7,-1.9 c 0.4,-1 1.1,-1.6 2.2,-1.5 0.8,0 1.8,0.2 2.6,0.5 1.1,0.3 1.9,1.2 1.9,2.5 -0.2,2.7 -0.2,5.5 -0.5,8.1 -0.6,5.7 -1.4,11.3 -2.2,16.8 -0.4,3.1 -1,6.3 -1.3,9.4 0,0.4 -0.2,0.9 0.1,1.4 l 1.9,-6.8 c 2.5,-8.9 5.4,-17.6 9.6,-25.9 1.1,-2 2.4,-4 3.7,-5.8 1.6,-2 3.6,-3.4 6.1,-3.8 4.5,-0.7 7.2,1.3 8.4,4.7 0.6,1.6 0.9,3.1 1,4.9 0.2,5.3 -1,10.3 -3.1,15.2 -0.2,0.5 -0.4,0.9 -0.4,1.6 1.6,-1.3 3.1,-2.8 4.6,-4.3 1.6,-1.6 3.2,-3.4 4.8,-5.2 0.9,-1.1 1.6,-1.2 3,-0.5 z"
   id="path12"
   style="fill:#a41634;fill-opacity:1" />
		<path
   class="st0"
   d="m 255.7,246.6 c 0.8,-1 1.8,-1.8 2.4,-2.8 1.6,-2.5 3.1,-5 4.4,-7.8 2.8,-5.8 5.4,-11.7 8,-17.6 0.5,-1.1 0.9,-1.4 1.9,-1.3 0.7,0.1 1,0.4 0.8,1.2 -0.1,0.4 -0.3,0.7 -0.4,1.1 -3,7.3 -6.1,14.4 -9.2,21.6 -1,2.2 -2.4,4.5 -4,6.4 -2.8,3.5 -9.1,3.1 -11.1,-1.7 -1.9,-4.7 -2.5,-9.6 -1.6,-14.5 1.1,-5.8 2.4,-11.6 3.7,-17.3 0.5,-2 1.5,-3.9 2.3,-5.7 0.2,-0.5 0.7,-0.9 1.1,-1.2 1.5,-0.9 4.9,-0.4 6.1,0.9 0.4,0.3 0.5,1 0.7,1.3 0.4,2.2 0.1,4.3 -0.3,6.4 -1.5,6.4 -2.8,12.9 -4.2,19.2 -0.7,3.3 -1.2,6.4 -1.2,9.6 0,0.7 0.1,1.3 0.1,1.9 0.2,0.1 0.4,0.3 0.5,0.3 z m 0.1,-50.2 c 0.1,-1.6 0.6,-3.4 1.9,-4.9 1.6,-1.9 5.2,-1.9 7,-0.4 0.7,0.5 0.6,1 0.3,1.8 -0.7,1.6 -1.3,3.2 -1.9,4.8 -0.4,1.1 -0.7,2.3 -0.1,3.6 0.3,0.6 -0.2,0.9 -0.8,1.1 -1.1,0.3 -2.3,0 -3.4,-0.6 -1.8,-1.2 -3,-2.9 -3,-5.4 z"
   id="path14"
   style="fill:#a41634;fill-opacity:1" />
		<path
   class="st0"
   d="m 300.1,249.8 c 0.6,-1.4 1.3,-2.8 1.9,-4.3 2.6,-7 5.2,-13.8 7.6,-20.7 0.7,-1.7 1,-3.5 1.7,-5.2 0.3,-1 1,-1.3 1.9,-1.3 0.7,0 1,0.3 1,1 -0.3,1.4 -0.7,2.9 -1,4.3 -1.6,4.4 -3.3,8.9 -4.9,13.4 -0.5,1.2 -0.7,2.5 -1.1,3.8 -0.8,2.6 -1.6,5.5 -2.7,8.1 -0.4,1.2 -1.3,2.4 -2.1,3.4 -1.4,1.8 -3.4,2.2 -5.5,1.9 -1.2,-0.1 -2,-0.9 -2.8,-1.9 -0.9,-1.6 -1.4,-3.2 -1.7,-5 -0.7,-3.7 -0.5,-7.4 -0.4,-11.1 0.2,-6.4 1,-12.6 1.9,-18.8 0.4,-3.1 0.7,-6.4 1,-9.6 V 205 c -0.7,0.2 -1,0.7 -1.4,1 -2.2,3 -3.8,6.2 -5.3,9.6 -2.2,4.9 -3.7,10.2 -5.2,15.3 -0.7,2.6 -1.6,5.2 -2.5,7.6 -0.4,1.4 -1.1,2.6 -1.9,3.9 -1.6,2.8 -5.8,2.3 -7.2,0.7 -1.5,-1.9 -2.5,-3.9 -3,-6.2 -0.7,-3.1 -0.7,-6.2 -0.4,-9.3 0.5,-6.3 1.3,-12.6 1.9,-18.8 0,-0.5 0.1,-1 0.2,-1.6 0.4,-1.6 1.1,-2.1 2.7,-1.9 0.8,0 1.7,0.2 2.4,0.5 1.2,0.3 2,1 2.2,2.3 0.3,1.7 0.7,3.5 0.6,5.2 -0.1,5.1 -0.5,10.1 -0.8,15.2 -0.1,2.6 -0.4,5.3 -0.5,8.1 0.2,-0.3 0.4,-0.7 0.5,-1 1.1,-3.7 2.3,-7.2 3.4,-10.8 1.6,-5.5 3.7,-10.5 6.3,-15.5 1,-2.1 2.4,-4 4,-5.8 3.4,-4 9.7,-2.4 11.4,2.1 0.7,1.9 1.1,3.7 1.1,5.8 0.1,4.1 -0.4,8.1 -1,12.2 -1,5.8 -1.9,11.7 -2.7,17.6 -0.4,2.8 -0.4,5.5 0,8.4 0.2,0.2 0.3,0.2 0.4,0.2 z"
   id="path16"
   style="fill:#a41634;fill-opacity:1" />
		<path
   class="st0"
   d="m 321,199.6 c -1.6,0.7 -3.1,0.5 -4.4,-0.3 -1.4,-1 -2.4,-2.1 -2.3,-3.8 0.2,-1.9 1,-3.4 2.8,-4.2 4.4,-2.1 9.3,2 8.9,6.6 -0.2,3 -1.3,5.4 -3.2,7.6 -0.5,0.7 -1.3,1.2 -2,1.6 -1.3,0.7 -2.8,0.4 -3.7,-0.4 -0.7,-0.7 -0.7,-1.3 0.1,-1.8 1.9,-1.3 2.8,-3.2 3.8,-5.3 z"
   id="path18"
   style="fill:#a41634;fill-opacity:1" />
	</g><path
     class="st0"
     d="m 75.840867,10.09545 c -1.4,-0.4000004 -2.8,0.5 -3.1,1.9 l -19.4,73.3 c -0.3,1.1 0.2,2.2 1.1,2.8 l 22.5,6 -31,117.3 -0.5,-0.1 c -3.8,-1 -7.6,1.3 -8.7,5.2 l -26.5,100 c -1.0000001,3.9 1.2,7.8 5,8.8 l 8.2,2.2 c 3.8,1 7.6,-1.3 8.7,-5.2 l 26.5,-100 c 1,-3.9 -1.2,-7.8 -5,-8.8 l -0.5,-0.1 31,-117.3 22.500003,6 c 1.1,-0.1 2,-0.8 2.3,-1.9 l 19.4,-73.3 c 0.4,-1.4 -0.4,-2.8 -1.8,-3.2 z m 3,7.8 c 1.3,0.3 2.1,1.8 1.7,3.2 l -12.4,46.6 c -0.4,1.4 -1.7,2.2 -3,1.9 -1.3,-0.3 -2.1,-1.8 -1.7,-3.2 l 12.3,-46.7 c 0.4,-1.3 1.8,-2.2 3.1,-1.8 z m 10.3,2.7 c 1.3,0.3 2.1,1.8 1.7,3.2 l -12.3,46.7 c -0.4,1.4 -1.7,2.2 -3,1.9 -1.3,-0.3 -2.1,-1.8 -1.7,-3.2 l 12.3,-46.7 c 0.4,-1.4 1.7,-2.2 3,-1.9 z m 10.4,2.8 c 1.300003,0.3 2.100003,1.8 1.700003,3.2 l -12.300003,46.7 c -0.4,1.4 -1.7,2.2 -3,1.9 -1.3,-0.3 -2.1,-1.8 -1.7,-3.2 l 12.3,-46.7 c 0.3,-1.4 1.7,-2.3 3,-1.9 z m 10.300003,2.7 c 1.3,0.3 2.1,1.8 1.7,3.2 l -12.300003,46.7 c -0.4,1.4 -1.7,2.2 -3,1.9 -1.3,-0.3 -2.1,-1.8 -1.7,-3.2 l 12.300003,-46.7 c 0.4,-1.4 1.7,-2.2 3,-1.9 z m 10.4,2.7 c 1.3,0.3 2.1,1.8 1.7,3.2 l -12.3,46.7 c -0.4,1.4 -1.7,2.2 -3,1.9 -1.3,-0.3 -2.1,-1.8 -1.7,-3.2 l 12.3,-46.7 c 0.3,-1.4 1.7,-2.2 3,-1.9 z m -96.100003,279.5 c 3,0.8 4.8,3.9 4,7 v 0 c -0.8,3.1 -3.9,4.9 -6.9,4.2 -3,-0.8 -4.8,-3.9 -4,-7 0.8,-3.1 3.9,-5 6.9,-4.2 z"
     id="path22"
     style="fill:#000000;fill-opacity:1" /><path
     class="st0"
     d="m 337.14087,100.19545 c -0.7,2.2 -1,2.7 -3.1,3.9 -5.3,3 -10.9,5.2 -16.8,6.6 -1.7,0.4 -3.4,0.7 -5.1,-0.2 -0.5,-0.3 -1,-0.1 -1.5,0.1 -4.4,1.4 -8.9,2.8 -13.3,4.2 -4.2,1.3 -8.5,2.6 -12.7,3.9 -0.3,0.1 -0.7,0.3 -1.1,0.4 0.1,0.8 0.1,1.5 0.2,2.2 0.3,2.3 0.4,4.6 0.1,7 -0.4,4.1 -2,7.7 -4.7,10.8 -2.5,2.9 -5.6,5.3 -9,7.2 -4.1,2.3 -8.6,3.9 -13.1,5.3 -6.1,1.8 -12.3,2.8 -18.6,3.4 -6.5,0.6 -12.9,0.3 -19.2,-1.3 -3,-0.7 -5.8,-1.7 -8.5,-3.2 -3.5,-1.9 -6.3,-4.6 -8.2,-8.2 -1.4,-2.6 -2.5,-5.4 -3.3,-8.3 -0.2,-0.8 -0.5,-1.7 -0.8,-2.5 -0.9,-2.6 -0.8,-5.1 0.3,-7.6 0.7,-1.6 1.7,-3 2.9,-4.3 1.7,-1.9 3.7,-3.5 5.8,-4.9 4.8,-3.1 10,-5.3 15.4,-6.9 7.3,-2.2 14.8,-3.5 22.5,-3.8 6.3,-0.3 12.6,0 18.8,1.3 4.8,1 9.4,2.5 13.5,5.3 0.6,0.4 1.2,0.4 1.8,0.2 2.3,-0.7 4.6,-1.3 6.9,-2 6.1,-1.8 12.2,-3.6 18.4,-5.5 0.8,-0.2 1.5,-0.5 2.4,-0.8 0.3,-1.9 1.7,-2.8 3.4,-3.3 5.4,-1.6 10.8,-3.3 16.4,-4.3 0.8,-0.1 1.6,-0.3 2.4,-0.3 3.3,0 6.1,1.1 7.6,4.4 0.1,0.3 0.1,0.8 0.2,1.2 z m -133,35.4 c 0.1,-0.1 0.2,-0.2 0.3,-0.3 1.6,-3.7 4.3,-6.5 7.5,-8.9 2.6,-1.9 5.4,-3.5 8.3,-4.7 6.8,-3 14.1,-4.6 21.4,-5.8 0.4,-0.1 0.7,-0.1 1.1,0 0.2,0.1 0.4,0.4 0.5,0.6 0,0.1 -0.2,0.5 -0.3,0.5 -0.6,0.2 -1.3,0.3 -1.9,0.4 -5.7,0.8 -11.3,2.1 -16.7,4.1 -4.3,1.6 -8.4,3.6 -12.1,6.4 -1.9,1.5 -3.6,3.1 -5,5.1 -0.7,1.1 -1.4,2.2 -1.7,3.6 0.7,0.4 1.4,0.8 2.1,1.1 2.7,1.3 5.5,2.2 8.5,2.8 7.9,1.8 16,1.9 24,1.1 4,-0.4 8.1,-1 12,-1.9 5.3,-1.2 10.5,-2.9 15.4,-5.3 3.2,-1.5 6.1,-3.3 8.8,-5.6 1.6,-1.4 3,-2.9 4.1,-4.8 2.2,-3.8 1.7,-7.6 -1.3,-10.8 -1.5,-1.6 -3.2,-2.7 -5.1,-3.7 -2.8,-1.4 -5.8,-2.3 -8.8,-3 -7.5,-1.7 -15.1,-1.9 -22.7,-1.3 -6.9,0.6 -13.7,1.8 -20.3,4 -4.8,1.6 -9.4,3.5 -13.6,6.2 -2.1,1.3 -4,2.8 -5.7,4.7 -1.1,1.2 -2,2.5 -2.7,3.9 -2,4.7 -0.4,9.3 3.9,11.6 z m 105.5,-34.3 c 1.9,1.1 3.7,2.2 5.5,3.3 0.9,0.6 1,0.9 0.8,2 -0.2,0.8 -0.4,1.7 -0.7,2.5 1,0.3 1.7,0 2.5,-0.2 5.5,-1.4 10.7,-3.5 15.7,-6.3 0.4,-0.2 0.9,-0.5 1.2,-0.9 1.4,-1.2 1.4,-2.4 0.2,-3.7 -1,-1.1 -2.4,-1.6 -3.8,-1.9 -1.8,-0.3 -3.5,0 -5.2,0.4 -4.4,1.1 -8.8,2.3 -13.2,3.6 -1.1,0.4 -2.2,0.4 -3,1.2 z m 4.1,5.9 c -0.8,0 -1.6,0.3 -2.4,0.6 -8.5,2.6 -16.9,5.2 -25.3,7.8 -0.8,0.3 -1.7,0.5 -2.5,0.8 -0.4,0.1 -0.5,0.4 -0.1,1 0.7,-0.2 1.4,-0.3 2.2,-0.6 8.4,-2.6 16.7,-5.2 25.1,-7.8 0.9,-0.3 1.8,-0.6 2.7,-0.9 0.3,-0.1 0.6,-0.4 0.3,-0.9 z"
     id="path24"
     style="fill:#000000;fill-opacity:1" /><g
     id="g44"
     style="fill:#a41634;fill-opacity:1"
     transform="translate(2.8408669,-31.10455)">
		<g
   id="g28"
   style="fill:#a41634;fill-opacity:1">
			<path
   class="st0"
   d="m 272.3,115.5 v 0 C 273,106.4 258.6,95.1 238.2,88.8 216.6,82.2 197.5,84.1 194.4,93 v 0.1 c 0,0.1 0,0.2 -0.1,0.2 -1.2,3.5 -2.3,7.4 -0.6,10.9 1.9,3.9 6.1,7.1 9.2,9.9 7.6,6.7 15.9,9.3 25.8,10.9 10.3,1.6 20.1,4.9 30.6,3.5 3.6,-0.5 7.7,-1.2 10.4,-3.8 2.6,-2.3 2.7,-5.9 2.6,-9.2 z m -1.5,-0.2 v 0 c 0,0.5 -0.1,0.9 -0.2,1.3 -2.5,8.1 -21.7,9.7 -41.9,3.5 -10.1,-3.1 -19.1,-7.6 -25.3,-12.7 -5.9,-4.9 -8.7,-9.8 -7.5,-13.6 0,-0.1 0.1,-0.2 0.1,-0.3 1.7,-4.6 8.8,-7 18.4,-7 6.9,0 15.1,1.2 23.4,3.8 19.1,5.9 33.6,17 33,25 z"
   id="path26"
   style="fill:#a41634;fill-opacity:1" />
		</g>
		<circle
   class="st0"
   cx="202.39999"
   cy="95.699997"
   r="1.5"
   id="circle30"
   style="fill:#a41634;fill-opacity:1" />
		<circle
   class="st0"
   cx="209.60001"
   cy="93.599998"
   r="1.5"
   id="circle32"
   style="fill:#a41634;fill-opacity:1" />
		<circle
   class="st0"
   cx="208.3"
   cy="99.5"
   r="1.3"
   id="circle34"
   style="fill:#a41634;fill-opacity:1" />
		<circle
   class="st0"
   cx="257.39999"
   cy="109.5"
   r="2"
   id="circle36"
   style="fill:#a41634;fill-opacity:1" />
		<circle
   class="st0"
   cx="258.39999"
   cy="115.9"
   r="1.7"
   id="circle38"
   style="fill:#a41634;fill-opacity:1" />
		<circle
   class="st0"
   cx="251.7"
   cy="107.8"
   r="0.89999998"
   id="circle40"
   style="fill:#a41634;fill-opacity:1" />
		<circle
   class="st0"
   cx="252.3"
   cy="102.2"
   r="1.4"
   id="circle42"
   style="fill:#a41634;fill-opacity:1" />
	</g><g
     id="g48"
     style="fill:#000000;fill-opacity:1"
     transform="translate(2.8408669,-31.10455)">
		<path
   class="st0"
   d="m 144.1,126.8 c -5.4,-12.1 -10.7,-24.3 -15,-36.9 -1.1,-3.2 -2.1,-6.6 -1.3,-9.9 0.8,-3.3 4.2,-6.2 7.4,-5.3 2.7,0.8 4.1,3.7 5.2,6.3 2.9,7.2 5.6,14.5 6.8,22.2 1.2,7.7 0,16.5 -3.1,23.6"
   id="path46"
   style="fill:#000000;fill-opacity:1" />
	</g><g
     id="g52"
     style="fill:#000000;fill-opacity:1"
     transform="translate(2.8408669,-31.10455)">
		<path
   class="st0"
   d="m 147.2,126.5 c 0.8,-8.6 2.5,-17 5.2,-25.2 1.6,-5 3.9,-10.3 8.4,-13.1 1.2,-0.8 3.1,-1.2 4,0 0.3,0.4 0.4,0.9 0.4,1.4 0.9,7.4 -1.4,15.2 -6.1,21 -1.6,2 -3.4,3.7 -5.1,5.6 -2.7,2.9 -5.1,6.7 -6.8,10.3"
   id="path50"
   style="fill:#000000;fill-opacity:1" />
	</g><g
     id="g56"
     style="fill:#000000;fill-opacity:1"
     transform="translate(2.8408669,-31.10455)">
		<path
   class="st0"
   d="m 149.4,127.3 c 8.5,-11.5 19.8,-21.8 31.4,-26.2 1.1,3.3 0.1,7.2 -1.7,9.8 -1.8,2.6 -4.2,4.2 -6.7,5.7 -7.4,4.5 -15.1,8.1 -23,10.7"
   id="path54"
   style="fill:#000000;fill-opacity:1" />
	</g><g
     id="g60"
     style="fill:#000000;fill-opacity:1"
     transform="translate(2.8408669,-31.10455)">
		<path
   class="st0"
   d="m 331.5,229.7 c 6.8,-11.4 13.7,-22.8 21.5,-33.5 2,-2.7 4.2,-5.6 7.4,-6.8 3.2,-1.2 7.5,-0.2 8.6,3 0.9,2.7 -0.6,5.5 -2.1,7.9 -4.2,6.5 -8.6,13 -14.2,18.4 -5.8,5.3 -13.6,9.4 -21.2,11"
   id="path58"
   style="fill:#000000;fill-opacity:1" />
	</g><g
     id="g64"
     style="fill:#000000;fill-opacity:1"
     transform="translate(2.8408669,-31.10455)">
		<path
   class="st0"
   d="m 333.5,232 c 7.5,-4.3 15.4,-7.7 23.6,-10.3 5.1,-1.6 10.6,-2.8 15.5,-0.7 1.4,0.6 2.8,1.9 2.3,3.2 -0.2,0.5 -0.6,0.8 -0.9,1.2 -5.6,5 -13.2,7.6 -20.6,7.2 -2.5,-0.2 -5,-0.7 -7.5,-0.9 -4,-0.5 -8.5,-0.4 -12.4,0.3"
   id="path62"
   style="fill:#000000;fill-opacity:1" />
	</g><g
     id="g68"
     style="fill:#000000;fill-opacity:1"
     transform="translate(2.8408669,-31.10455)">
		<path
   class="st0"
   d="m 334.1,234.3 c 14.3,0.3 29.3,3.6 39.5,10.6 -2.1,2.7 -5.8,4.2 -9,4.3 -3.2,0.1 -5.9,-1 -8.5,-2.2 -7.9,-3.5 -15.3,-7.7 -22,-12.7"
   id="path66"
   style="fill:#000000;fill-opacity:1" />
	</g><g
     id="g84"
     style="fill:#000000;fill-opacity:1"
     transform="translate(2.8408669,-31.10455)">
		<path
   class="st0"
   d="m 51,320.5 c -1.5,-0.3 -2.2,-0.8 -2.3,-1.6 0,-0.8 0.4,-2.3 1.3,-4.6 0.2,-0.6 0.4,-1.2 0.7,-1.9 0.2,-0.5 0.6,-0.8 1.1,-0.8 0.6,-0.1 1.2,-0.1 1.8,0 h 0.1 l 1.1,-3.6 c 0.3,-1.1 0.8,-2.6 1.4,-4.8 0.7,-2.5 1.5,-5.2 2.4,-8 0.9,-2.9 1.7,-5.4 2.4,-7.5 0.7,-2.1 1.3,-3.3 1.6,-3.6 0.3,-0.2 1.4,-0.6 3.3,-1.4 1.8,-0.8 3.9,-1.6 6.2,-2.6 2.3,-0.9 4.4,-1.7 6.2,-2.4 1.8,-0.6 2.9,-0.9 3.3,-0.8 0.3,0.6 0.7,4.6 1.1,12.2 0.5,7.5 0.9,16.2 1.4,26 0.5,9.8 0.8,18.5 1.1,26 0.3,7.5 0.4,11.4 0.3,11.9 -0.1,0 -0.6,0.2 -1.6,0.4 -1,0.2 -2.2,0.3 -3.5,0.4 -1.3,0.1 -2.5,0.1 -3.5,0 -1,-0.1 -1.6,-0.5 -1.7,-1 l -1.5,-29.7 -12.3,-0.7 -3.7,12 c -1,3.4 -1.8,6.1 -2.2,8.1 -0.6,3 -1.3,4.7 -2,5.2 -0.7,0.5 -2.3,0.2 -4.9,-0.8 -1.1,-0.4 -2.6,-0.9 -4.3,-1.4 v 0 0 0 0 0 0 0 0 0 0 0 0 0 0 0 0 0 0 0 0 0 0 0 0 0 0 0 0 0 0 0 0 0 0 0 0 0 0 0 0 0 0 0 z m 21.3,-29 -1.4,0.6 -6.2,20.2 8.7,0.5 z"
   id="path70"
   style="fill:#000000;fill-opacity:1" />
		<path
   class="st0"
   d="m 104.7,292.6 1.3,26.1 c 0.9,-4.5 1.8,-9.4 2.9,-14.9 1.1,-5.4 2,-10.2 2.9,-14.2 0.9,-4 1.5,-6.2 1.8,-6.6 0.1,0 0.7,-0.2 2,-0.5 1.2,-0.3 2.7,-0.6 4.3,-0.9 1.6,-0.3 3.1,-0.5 4.5,-0.6 1.3,-0.1 2.1,0 2.4,0.3 0.1,0.4 0.7,3.1 1.8,8.2 1,5.1 2.2,11 3.6,17.6 1.3,6.6 2.5,12.3 3.5,17.2 0.4,-4.8 1,-10.4 1.7,-16.8 0.7,-6.4 1.4,-12.1 2,-17 0.7,-4.9 1.2,-7.6 1.7,-8 1.4,0 2.5,0 3.5,0 1,0 1.9,0.1 2.9,0.2 1,0.1 1.8,0.3 2.4,0.6 0.6,0.3 1,0.6 1,1.1 0,0.5 -0.4,4.2 -1.1,10.8 -0.7,6.7 -1.6,14.4 -2.6,23.1 -1,8.7 -1.9,16.4 -2.7,23.1 -0.8,6.7 -1.3,10.2 -1.5,10.7 -0.1,0.1 -0.7,0.1 -1.9,0.2 -1.2,0.1 -2.6,0.1 -4.2,0 -1.6,0 -3,-0.2 -4.3,-0.4 -1.3,-0.2 -2,-0.6 -2.2,-1.1 l -7.8,-38.5 -2.2,-10.7 -1.1,5.4 c 0,0.2 -0.1,0.8 -0.3,1.8 -0.4,2 -0.9,5 -1.7,8.9 -0.7,3.9 -1.5,7.9 -2.3,12.2 -0.8,4.2 -1.6,7.8 -2.3,10.8 -0.7,3 -1.2,4.6 -1.6,4.9 -0.1,0 -0.8,0.1 -2.1,0.2 -1.3,0.1 -2.9,0.2 -4.6,0.3 -1.8,0.1 -3.4,0.1 -4.8,0.1 -1.4,-0.1 -2.2,-0.3 -2.5,-0.6 0,-0.3 -0.2,-3.1 -0.6,-8.3 -0.4,-5.3 -0.7,-11.4 -1.1,-18.3 -0.4,-6.9 -0.7,-13.1 -0.8,-18.4 -0.1,-5.3 0,-8.2 0.4,-8.7 0.1,-0.1 0.6,-0.1 1.5,-0.2 0.8,0 1.8,-0.1 2.8,-0.1 1.1,0 2,-0.1 2.9,-0.1 0.9,0 1.4,0 1.6,0 v 0 0 0 0 0 0 0 0 0 0 0 0 h 0.1 v 0 0 0 0 0 0 0 h 0.1 v 0 0 0 0 0 0 0 0 0 0 0 0 0 0.1 c 0,0 0,0 0,0.1 v 0.9 z"
   id="path72"
   style="fill:#000000;fill-opacity:1" />
		<path
   class="st0"
   d="m 164.6,282.4 v 0 0.3 c 0.5,-0.1 1.1,-0.1 1.8,-0.2 2.3,-0.2 5.1,-0.4 8.4,-0.6 3.3,-0.2 6.3,-0.4 8.9,-0.4 2.7,0 4.2,0.2 4.5,0.6 0.1,0.2 0.1,0.5 0.2,1 0,0.5 0.1,1 0.1,1.5 0,0.5 0,1.2 0,2 0,0.4 0.1,0.7 0.1,1 0.2,2.3 0.1,3.7 -0.4,4.2 -0.5,0.5 -2,0.7 -4.6,0.6 -1.8,-0.1 -4.4,0 -7.8,0.2 l -11,0.6 0.2,9.8 c 2.1,-0.3 4,-0.7 5.5,-1 2.1,-0.5 3.7,-0.7 4.8,-0.6 1.1,0.1 1.9,0.8 2.3,2.2 0.4,1.4 0.6,3.7 0.7,7.1 0,0.7 -0.5,1.2 -1.5,1.5 -1,0.3 -2,0.5 -3.1,0.5 -1.1,0 -2,0.1 -2.5,0 -0.2,0 -0.3,0 -0.4,0 l -5.6,0.7 0.5,28 c 0.4,0 0.8,-0.1 1.3,-0.1 1.9,-0.2 4.3,-0.5 7.1,-0.8 2.8,-0.3 5.3,-0.4 7.6,-0.5 2.3,-0.1 3.6,0.1 3.9,0.5 0,0.1 0.1,0.6 0.3,1.5 0.2,0.9 0.3,2 0.5,3.2 0.1,1.2 0.1,2.3 0,3.3 -0.1,1 -0.4,1.5 -1,1.7 l -28.2,2.2 c -0.4,0.1 -0.8,0.1 -1.2,0.1 -0.4,-0.1 -0.6,-0.4 -0.7,-0.9 l -1.1,-65.1 v -0.9 c 0,-0.1 0,-0.1 0,-0.2 -0.1,-0.4 -0.1,-0.8 0,-1.2 0,-1.5 0.3,-2.4 1,-2.6 0.7,-0.3 1.9,-0.3 3.5,-0.1 1.3,0.1 2.9,0.2 4.9,0.2 v 0 0 0 0 0 0 0 0 0 0 0 0 0 0 0 0 0 0 0 0 0 0 0 0 0 0 0 0 0 0 0 0 0 0 0 0 0 0 0 0.7 z"
   id="path74"
   style="fill:#000000;fill-opacity:1" />
		<path
   class="st0"
   d="m 221.1,295.9 c -1.2,-1 -2.2,-1.6 -3,-2 -0.8,-0.4 -1.9,-0.7 -3.5,-1 -2.5,0 -4.4,0.2 -5.7,0.7 -1.3,0.5 -2.9,1.5 -4.7,3.2 -2.1,2.7 -3.1,5.1 -3,7 0.2,1.9 1.1,3.5 2.7,4.8 1.7,1.3 3.7,2.3 6,3.2 2.3,0.8 4.6,1.5 6.8,2.1 2,0.5 3.6,1 4.8,1.5 5.8,2.5 9.5,5.9 11.1,10.1 1.7,4.2 1.3,9.1 -1.1,14.6 -1.6,2.5 -2.9,4.3 -4.1,5.4 -1.2,1.2 -3,2.5 -5.4,4.1 -4.7,2.3 -9.5,3.4 -14.4,3.4 -4.9,-0.1 -9.5,-1.8 -13.8,-5.2 -0.4,-0.4 -0.5,-0.9 -0.2,-1.5 0.2,-0.6 0.6,-1.2 1.1,-1.7 0.5,-0.6 0.9,-1 1.2,-1.3 0.1,-0.1 0.2,-0.2 0.2,-0.3 1.2,-1.6 2.2,-2.6 2.9,-3.2 0.7,-0.5 1.3,-0.7 1.7,-0.5 0.5,0.2 0.9,0.5 1.4,1 0.7,0.8 1.8,1.5 3.4,2.1 1.6,0.6 4,0.5 7.4,-0.3 4,-1.1 7,-3.4 9.2,-7 V 335 c 0.5,-1.1 0.9,-1.9 1,-2.6 0.1,-0.6 0.1,-1.6 -0.1,-2.7 -0.9,-2 -2.2,-3.5 -4,-4.3 -1.7,-0.9 -3.6,-1.5 -5.7,-2 -0.5,-0.1 -0.9,-0.3 -1.4,-0.4 -0.1,0 -0.2,-0.1 -0.4,-0.1 -3.5,-0.8 -6.2,-1.7 -8.2,-2.5 -1.9,-0.8 -4.3,-2.4 -7.1,-4.8 -2.3,-2.6 -3.8,-4.8 -4.5,-6.6 -0.7,-1.7 -1,-4.4 -0.9,-7.9 0.9,-4.6 2.4,-8.2 4.5,-10.6 2.1,-2.4 5.3,-4.7 9.6,-6.8 4.2,-1.1 8.2,-1.5 12.2,-1.1 4,0.4 7.6,2.2 10.9,5.3 0.4,0.4 0.4,0.9 0,1.6 -0.4,0.7 -1,1.4 -1.7,2.2 -0.8,0.8 -1.5,1.5 -2.3,2.2 -0.6,0.6 -1.2,1.1 -1.5,1.5 v 0 0 0 0 0 0 0 0 0 0 0 0 0 0 0 0 0 0 0 0 0 0 0 0 0 0 0 0 0 0 0 0 0 0 0 0 0 0 0 0 0 z"
   id="path76"
   style="fill:#000000;fill-opacity:1" />
		<path
   class="st0"
   d="m 244.6,299 c 1.7,-2.4 4.7,-5.3 8.9,-8.6 -0.1,-1.2 -0.1,-2.2 -0.2,-3 -0.3,-2.3 -0.2,-3.7 0.4,-4.1 0.6,-0.5 2.4,-0.5 5.3,-0.2 0.9,0.1 1.9,0.1 3,0.2 7.2,1.1 13.5,3.1 19,6.2 5.5,3 9.8,7.9 13,14.5 2.7,6.1 3.5,12.4 2.5,18.9 -1,6.6 -3.6,12.4 -7.8,17.6 -4.2,5.1 -9.6,8.6 -16.3,10.5 l -5.6,0.9 c -5.3,0.1 -9.6,-0.7 -12.6,-2.2 -3.1,-1.5 -6.4,-4.3 -10,-8.3 -3.4,-6 -5.4,-10.9 -5.9,-14.7 -0.6,-3.8 -0.2,-9.1 1,-15.8 0,-0.1 0,-0.1 0,-0.2 v -0.1 -0.1 c 1.8,-5.4 3.6,-9.1 5.3,-11.5 z m 22,-4.3 c -5.9,2.4 -10.5,5.8 -13.7,10.2 -3.2,4.4 -5,9.3 -5.2,14.6 -0.2,5.3 1.3,10.6 4.6,15.9 2.1,3.1 4.8,5.2 8,6.1 3.2,0.9 6.6,0.8 10.1,-0.4 3.5,-1.1 6.7,-3.1 9.5,-6.1 2.8,-2.9 4.8,-6.6 6,-11 l 0.8,-4.9 c 0,-0.5 0,-0.8 0,-1.1 0,-0.2 0,-0.3 0,-0.4 0,-0.1 0,-0.2 0,-0.3 0,-0.1 0,-0.3 0,-0.5 0,-0.2 0,-0.5 0,-0.9 -0.5,-3.6 -1.2,-6.4 -2,-8.2 -0.9,-1.8 -2.5,-4.1 -5,-6.8 -2.5,-2.1 -4.5,-3.5 -6.1,-4.4 -1.6,-0.9 -3.7,-1.7 -6.5,-2.4 v 0 0 0 0 0 0 0 0 0 0 0 0 0 0 0 0 0 0 0 0 0 0 0 z"
   id="path78"
   style="fill:#000000;fill-opacity:1" />
		<path
   class="st0"
   d="m 300.9,348.8 c 0.1,-3.3 0.1,-8.3 0.3,-14.8 0.1,-6.6 0.3,-13.4 0.4,-20.6 0.2,-7.2 0.4,-13.3 0.6,-18.5 0.2,-5.1 0.5,-7.9 0.9,-8.2 3.3,-0.5 6.1,-0.9 8.2,-1.2 2.2,-0.3 4.1,-0.4 5.8,-0.5 1.7,-0.1 2.7,0 3.1,0.3 0.1,0.3 0.5,2.3 1.4,5.9 0.8,3.6 1.8,7.8 2.8,12.6 1,4.8 2,9.1 2.8,12.9 0.2,0.8 0.3,1.5 0.5,2.1 0.8,-3.7 1.8,-8.2 3,-13.5 1.2,-5.3 2.3,-10 3.4,-14.2 1,-4.2 1.7,-6.5 2.1,-6.8 0.1,0 1,-0.2 2.7,-0.6 1.7,-0.4 3.7,-0.7 5.9,-1.1 2.3,-0.4 4.3,-0.6 6.1,-0.8 1.8,-0.1 2.8,0 3.1,0.4 -0.3,11.8 -0.5,21.6 -0.7,29.2 -0.2,7.6 -0.5,14.4 -0.9,20.2 -0.4,5.9 -0.7,9 -1.2,9.5 -0.1,0 -0.6,0.1 -1.5,0.1 -1,0.1 -2.1,0.1 -3.3,0.1 -1.3,0 -2.4,-0.1 -3.3,-0.3 -1,-0.2 -1.5,-0.6 -1.6,-1.1 l 1.5,-39 c -1.1,5.1 -2.4,11 -4,17.7 -1.5,6.7 -2.9,12.6 -4.2,17.7 -1.3,5.1 -2.1,7.9 -2.5,8.3 -0.1,0 -0.5,0.1 -1.4,0.3 -0.9,0.1 -1.9,0.3 -3.1,0.4 -1.2,0.1 -2.3,0.2 -3.2,0.1 -1,-0.1 -1.6,-0.4 -1.8,-0.8 l -9.7,-44 c 0,3.8 -0.1,8.5 -0.2,14.2 -0.1,5.7 -0.2,11.4 -0.4,17.1 -0.2,5.7 -0.4,10.6 -0.6,14.5 -0.2,3.9 -0.6,6.1 -0.9,6.4 -0.2,0 -0.8,0 -1.9,0 -1,0 -2.2,0 -3.4,-0.1 -1.2,0 -2.2,-0.1 -3,-0.1 -0.3,0 -0.5,0 -0.7,0 v 0 0 0 0 0 0 0 0 0 0 0 0 0 0 0 0 0 0 0 0 0 0 0 0 0 0 0 0 0 0 0 0 0 0 0 0 0 0 0 0 0 c -1.2,-1.4 -1.1,-2.3 -1.1,-3.8 z"
   id="path80"
   style="fill:#000000;fill-opacity:1" />
		<path
   class="st0"
   d="m 368.8,282.4 v 0 0.3 c 0.5,-0.1 1.1,-0.1 1.8,-0.2 2.3,-0.2 5.1,-0.4 8.4,-0.6 3.3,-0.2 6.3,-0.4 8.9,-0.4 2.7,0 4.2,0.2 4.5,0.6 0.1,0.2 0.1,0.5 0.2,1 0,0.5 0.1,1 0.1,1.5 0,0.5 0,1.2 0,2 0,0.4 0.1,0.7 0.1,1 0.2,2.3 0.1,3.7 -0.4,4.2 -0.5,0.5 -2,0.7 -4.6,0.6 -1.8,-0.1 -4.4,0 -7.8,0.2 l -11,0.6 0.2,9.8 c 2.1,-0.3 4,-0.7 5.5,-1 2.1,-0.5 3.7,-0.7 4.8,-0.6 1.1,0.1 1.9,0.8 2.3,2.2 0.4,1.4 0.6,3.7 0.7,7.1 0,0.7 -0.5,1.2 -1.5,1.5 -1,0.3 -2,0.5 -3.1,0.5 -1.1,0 -2,0.1 -2.5,0 -0.2,0 -0.3,0 -0.4,0 l -5.6,0.7 0.5,28 c 0.4,0 0.8,-0.1 1.3,-0.1 1.9,-0.2 4.3,-0.5 7.1,-0.8 2.8,-0.3 5.3,-0.4 7.6,-0.5 2.3,-0.1 3.6,0.1 3.9,0.5 0,0.1 0.1,0.6 0.3,1.5 0.2,0.9 0.3,2 0.5,3.2 0.1,1.2 0.1,2.3 0,3.3 -0.1,1 -0.4,1.5 -1,1.7 l -28.2,2.2 c -0.4,0.1 -0.8,0.1 -1.2,0.1 -0.4,0 -0.6,-0.4 -0.7,-0.9 l -1.1,-65.1 v -0.9 c 0,-0.1 0,-0.1 0,-0.2 -0.1,-0.4 -0.1,-0.8 0,-1.2 0,-1.5 0.3,-2.4 1,-2.6 0.7,-0.3 1.9,-0.3 3.5,-0.1 1.3,0.1 2.9,0.2 4.9,0.2 v 0 0 0 0 0 0 0 0 0 0 0 0 0 0 0 0 0 0 0 0 0 0 0 0 0 0 0 0 0 0 0 0 0 0 0 0 0 0 0 0.7 z"
   id="path82"
   style="fill:#000000;fill-opacity:1" />
	</g></g>
</svg>
